<svg xmlns="http://www.w3.org/2000/svg" width="560" height="320" viewBox="0 0 560 320" xmlns:xlink="http://www.w3.org/1999/xlink">
  <defs>
    <rect id="a" width="16" height="16" rx="3"/>
    <mask id="i" width="16" height="16" x="0" y="0" fill="white">
      <use xlink:href="#a"/>
    </mask>
    <rect id="b" width="16" height="16" rx="3"/>
    <mask id="j" width="16" height="16" x="0" y="0" fill="white">
      <use xlink:href="#b"/>
    </mask>
    <rect id="c" width="16" height="16" rx="3"/>
    <mask id="k" width="16" height="16" x="0" y="0" fill="white">
      <use xlink:href="#c"/>
    </mask>
    <path id="d" d="M5.52673218,8.1632117 C3.30711679,11.1172666 2.10955384,14.3234005 2.10955384,14.3234005 C2.00178792,14.5868978 2.08245472,14.9774557 2.28995873,15.1842237 C2.28995873,15.1842237 2.44021585,15.407765 3.09742236,15.7872033 C3.75462887,16.1666417 4.27850246,16.1902506 4.27850246,16.1902506 C4.56734693,16.2424487 4.92138976,16.066796 5.06136383,15.809405 C5.06136383,15.809405 6.52354867,13.0822882 7.95599206,10.8514619 C9.60839425,12.3289293 11.0435295,12.9960294 11.0435295,12.9960294 C11.311979,13.1402509 11.7214028,13.1234263 11.9735565,12.9751073 C11.9735565,12.9751073 12.1892157,12.9012184 12.6375389,12.4528951 C13.0858622,12.0045718 13.0106847,11.5327058 13.0106847,11.5327058 C13.0366284,11.2510892 12.8536768,10.8513153 12.6243604,10.6608152 C12.6243604,10.6608152 11.3216633,9.59797788 9.87857402,8.25324012 C11.9629673,5.90358234 15.7293845,2.52632743 15.7293845,2.52632743 C15.9471305,2.32863748 15.9978734,1.97540974 15.8411103,1.7376615 C15.8411103,1.7376615 15.7605729,1.47020846 15.1963511,1.1444557 C14.6321293,0.818702947 14.1786568,0.812092037 14.1786568,0.812092037 C13.8898468,0.764621745 13.4535962,0.873361878 13.2196082,1.04361103 C13.2196082,1.04361103 10.145918,3.21871546 7.54789231,5.84750783 C6.28227002,4.34717295 5.32348554,2.88041276 5.32348554,2.88041276 C5.15670808,2.63576118 4.80962748,2.53818431 4.54548915,2.66298211 C4.54548915,2.66298211 4.30112046,2.71710316 3.89583376,3.12238987 C3.49054705,3.52767657 3.36341859,4.18164668 3.36341859,4.18164668 C3.280416,4.45462663 3.3321534,4.89254167 3.47167031,5.14582672 C3.47167031,5.14582672 3.95139672,6.14256246 5.52673218,8.1632117 Z"/>
    <mask id="l" width="15.65" height="17.178" x="-.89" y="-.89">
      <rect width="15.65" height="17.178" x="1.172" y="-.089" fill="white"/>
      <use fill="black" xlink:href="#d"/>
    </mask>
    <rect id="e" width="16" height="16" rx="3"/>
    <mask id="m" width="16" height="16" x="0" y="0" fill="white">
      <use xlink:href="#e"/>
    </mask>
    <path id="f" d="M5.52673218,8.1632117 C3.30711679,11.1172666 2.10955384,14.3234005 2.10955384,14.3234005 C2.00178792,14.5868978 2.08245472,14.9774557 2.28995873,15.1842237 C2.28995873,15.1842237 2.44021585,15.407765 3.09742236,15.7872033 C3.75462887,16.1666417 4.27850246,16.1902506 4.27850246,16.1902506 C4.56734693,16.2424487 4.92138976,16.066796 5.06136383,15.809405 C5.06136383,15.809405 6.52354867,13.0822882 7.95599206,10.8514619 C9.60839425,12.3289293 11.0435295,12.9960294 11.0435295,12.9960294 C11.311979,13.1402509 11.7214028,13.1234263 11.9735565,12.9751073 C11.9735565,12.9751073 12.1892157,12.9012184 12.6375389,12.4528951 C13.0858622,12.0045718 13.0106847,11.5327058 13.0106847,11.5327058 C13.0366284,11.2510892 12.8536768,10.8513153 12.6243604,10.6608152 C12.6243604,10.6608152 11.3216633,9.59797788 9.87857402,8.25324012 C11.9629673,5.90358234 15.7293845,2.52632743 15.7293845,2.52632743 C15.9471305,2.32863748 15.9978734,1.97540974 15.8411103,1.7376615 C15.8411103,1.7376615 15.7605729,1.47020846 15.1963511,1.1444557 C14.6321293,0.818702947 14.1786568,0.812092037 14.1786568,0.812092037 C13.8898468,0.764621745 13.4535962,0.873361878 13.2196082,1.04361103 C13.2196082,1.04361103 10.145918,3.21871546 7.54789231,5.84750783 C6.28227002,4.34717295 5.32348554,2.88041276 5.32348554,2.88041276 C5.15670808,2.63576118 4.80962748,2.53818431 4.54548915,2.66298211 C4.54548915,2.66298211 4.30112046,2.71710316 3.89583376,3.12238987 C3.49054705,3.52767657 3.36341859,4.18164668 3.36341859,4.18164668 C3.280416,4.45462663 3.3321534,4.89254167 3.47167031,5.14582672 C3.47167031,5.14582672 3.95139672,6.14256246 5.52673218,8.1632117 Z"/>
    <mask id="n" width="15.65" height="17.178" x="-.89" y="-.89">
      <rect width="15.65" height="17.178" x="1.172" y="-.089" fill="white"/>
      <use fill="black" xlink:href="#f"/>
    </mask>
    <rect id="g" width="16" height="16" rx="3"/>
    <mask id="o" width="16" height="16" x="0" y="0" fill="white">
      <use xlink:href="#g"/>
    </mask>
    <rect id="h" width="16" height="16" rx="3"/>
    <mask id="p" width="16" height="16" x="0" y="0" fill="white">
      <use xlink:href="#h"/>
    </mask>
  </defs>
  <g fill="none" fill-rule="evenodd">
    <use stroke="#F2F4FB" stroke-width="4" mask="url(#i)" xlink:href="#a" transform="translate(261 115)"/>
    <use stroke="#F2F4FB" stroke-width="4" mask="url(#j)" xlink:href="#b" transform="translate(458 197)"/>
    <g transform="translate(107 169)">
      <use stroke="#F2F4FB" stroke-width="4" mask="url(#k)" xlink:href="#c"/>
      <use fill="#F1F4FA" xlink:href="#d"/>
      <use stroke="#FFFFFF" stroke-width="1.779" mask="url(#l)" xlink:href="#d"/>
    </g>
    <g transform="translate(432 33)">
      <use stroke="#F2F4FB" stroke-width="4" mask="url(#m)" xlink:href="#e"/>
      <use fill="#F1F4FA" xlink:href="#f"/>
      <use stroke="#FFFFFF" stroke-width="1.779" mask="url(#n)" xlink:href="#f"/>
    </g>
    <use stroke="#F2F4FB" stroke-width="4" mask="url(#o)" xlink:href="#g" transform="translate(65 85)"/>
    <use stroke="#F2F4FB" stroke-width="4" mask="url(#p)" xlink:href="#h" transform="translate(227 260)"/>
  </g>
</svg>
